<svg xmlns="http://www.w3.org/2000/svg" xmlns:xlink="http://www.w3.org/1999/xlink" width="1920" zoomAndPan="magnify" viewBox="0 0 1440 809.999993" height="1080" preserveAspectRatio="xMidYMid meet" version="1.0"><defs><g/></defs><g fill="#9ed3c3" fill-opacity="1"><g transform="translate(762.71037, 486.19452)"><g><path d="M 96.28125 -85.515625 C 97.125 -82.484375 97.816406 -79.273438 98.359375 -75.890625 L 25 -55.53125 C 27.332031 -49.09375 30.84375 -44.65625 35.53125 -42.21875 C 40.21875 -39.78125 45.285156 -39.316406 50.734375 -40.828125 C 58.804688 -43.066406 63.476562 -48.035156 64.75 -55.734375 L 99.234375 -65.3125 C 99.398438 -57.863281 97.945312 -50.722656 94.875 -43.890625 C 91.8125 -37.054688 87.242188 -31.09375 81.171875 -26 C 75.097656 -20.914062 67.765625 -17.179688 59.171875 -14.796875 C 48.804688 -11.921875 38.96875 -11.570312 29.65625 -13.75 C 20.34375 -15.925781 12.269531 -20.488281 5.4375 -27.4375 C -1.382812 -34.382812 -6.320312 -43.351562 -9.375 -54.34375 C -12.425781 -65.332031 -12.847656 -75.554688 -10.640625 -85.015625 C -8.429688 -94.472656 -3.898438 -102.535156 2.953125 -109.203125 C 9.804688 -115.867188 18.476562 -120.660156 28.96875 -123.578125 C 39.207031 -126.410156 48.898438 -126.785156 58.046875 -124.703125 C 67.203125 -122.628906 75.128906 -118.234375 81.828125 -111.515625 C 88.523438 -104.796875 93.34375 -96.128906 96.28125 -85.515625 Z M 60.765625 -84.84375 C 59.222656 -90.40625 56.097656 -94.300781 51.390625 -96.53125 C 46.691406 -98.757812 41.5 -99.082031 35.8125 -97.5 C 30.375 -95.988281 26.226562 -93.140625 23.375 -88.953125 C 20.53125 -84.765625 19.472656 -79.640625 20.203125 -73.578125 Z M 60.765625 -84.84375 "/></g></g></g><g fill="#9ed3c3" fill-opacity="1"><g transform="translate(383.26408, 473.707671)"><g><path d="M 54 -111.53125 C 61.75 -111.53125 68.546875 -109.953125 74.390625 -106.796875 C 80.234375 -103.648438 84.734375 -99.515625 87.890625 -94.390625 L 87.890625 -109.953125 L 121.59375 -109.953125 L 121.59375 -0.203125 C 121.59375 9.921875 119.585938 19.085938 115.578125 27.296875 C 111.566406 35.503906 105.457031 42.035156 97.25 46.890625 C 89.039062 51.753906 78.828125 54.1875 66.609375 54.1875 C 50.316406 54.1875 37.113281 50.34375 27 42.65625 C 16.882812 34.976562 11.101562 24.566406 9.65625 11.421875 L 42.953125 11.421875 C 44.003906 15.628906 46.5 18.945312 50.4375 21.375 C 54.382812 23.8125 59.25 25.03125 65.03125 25.03125 C 71.988281 25.03125 77.535156 23.023438 81.671875 19.015625 C 85.816406 15.003906 87.890625 8.597656 87.890625 -0.203125 L 87.890625 -15.765625 C 84.609375 -10.640625 80.078125 -6.46875 74.296875 -3.25 C 68.515625 -0.03125 61.75 1.578125 54 1.578125 C 44.925781 1.578125 36.710938 -0.753906 29.359375 -5.421875 C 22.003906 -10.085938 16.191406 -16.722656 11.921875 -25.328125 C 7.648438 -33.929688 5.515625 -43.878906 5.515625 -55.171875 C 5.515625 -66.472656 7.648438 -76.394531 11.921875 -84.9375 C 16.191406 -93.476562 22.003906 -100.046875 29.359375 -104.640625 C 36.710938 -109.234375 44.925781 -111.53125 54 -111.53125 Z M 87.890625 -54.984375 C 87.890625 -63.390625 85.554688 -70.019531 80.890625 -74.875 C 76.222656 -79.738281 70.539062 -82.171875 63.84375 -82.171875 C 57.144531 -82.171875 51.460938 -79.773438 46.796875 -74.984375 C 42.140625 -70.191406 39.8125 -63.585938 39.8125 -55.171875 C 39.8125 -46.765625 42.140625 -40.097656 46.796875 -35.171875 C 51.460938 -30.242188 57.144531 -27.78125 63.84375 -27.78125 C 70.539062 -27.78125 76.222656 -30.210938 80.890625 -35.078125 C 85.554688 -39.941406 87.890625 -46.578125 87.890625 -54.984375 Z M 87.890625 -54.984375 "/></g></g></g><g fill="#9ed3c3" fill-opacity="1"><g transform="translate(507.594773, 473.741862)"><g><path d="M 62.15625 1.578125 C 51.40625 1.578125 41.734375 -0.71875 33.140625 -5.3125 C 24.554688 -9.90625 17.800781 -16.460938 12.875 -24.984375 C 7.957031 -33.503906 5.5 -43.46875 5.5 -54.875 C 5.5 -66.15625 7.988281 -76.085938 12.96875 -84.671875 C 17.957031 -93.265625 24.78125 -99.851562 33.4375 -104.4375 C 42.09375 -109.03125 51.796875 -111.328125 62.546875 -111.328125 C 73.304688 -111.328125 83.007812 -109.03125 91.65625 -104.4375 C 100.3125 -99.851562 107.128906 -93.265625 112.109375 -84.671875 C 117.097656 -76.085938 119.59375 -66.15625 119.59375 -54.875 C 119.59375 -43.601562 117.066406 -33.671875 112.015625 -25.078125 C 106.972656 -16.492188 100.085938 -9.90625 91.359375 -5.3125 C 82.640625 -0.71875 72.90625 1.578125 62.15625 1.578125 Z M 62.15625 -27.53125 C 68.582031 -27.53125 74.054688 -29.890625 78.578125 -34.609375 C 83.109375 -39.335938 85.375 -46.09375 85.375 -54.875 C 85.375 -63.664062 83.175781 -70.421875 78.78125 -75.140625 C 74.382812 -79.859375 68.972656 -82.21875 62.546875 -82.21875 C 55.992188 -82.21875 50.550781 -79.890625 46.21875 -75.234375 C 41.894531 -70.578125 39.734375 -63.789062 39.734375 -54.875 C 39.734375 -46.09375 41.863281 -39.335938 46.125 -34.609375 C 50.382812 -29.890625 55.726562 -27.53125 62.15625 -27.53125 Z M 62.15625 -27.53125 "/></g></g></g><g fill="#9ed3c3" fill-opacity="1"><g transform="translate(623.040863, 471.161919)"><g><path d="M 79.078125 -110.9375 C 91.929688 -110.9375 102.191406 -106.769531 109.859375 -98.4375 C 117.523438 -90.113281 121.359375 -78.675781 121.359375 -64.125 L 121.359375 0 L 87.921875 0 L 87.921875 -59.59375 C 87.921875 -66.9375 86.019531 -72.640625 82.21875 -76.703125 C 78.414062 -80.773438 73.300781 -82.8125 66.875 -82.8125 C 60.445312 -82.8125 55.332031 -80.773438 51.53125 -76.703125 C 47.726562 -72.640625 45.828125 -66.9375 45.828125 -59.59375 L 45.828125 0 L 12.203125 0 L 12.203125 -109.765625 L 45.828125 -109.765625 L 45.828125 -95.203125 C 49.242188 -100.054688 53.832031 -103.890625 59.59375 -106.703125 C 65.363281 -109.523438 71.859375 -110.9375 79.078125 -110.9375 Z M 79.078125 -110.9375 "/></g></g></g><g fill="#9ed3c3" fill-opacity="1"><g transform="translate(883.421554, 473.109635)"><g><path d="M 2.21875 -22.0625 C 2.21875 -26.65625 3.148438 -30.664062 5.015625 -34.09375 C 6.890625 -37.519531 9.5 -40.15625 12.84375 -42 C 16.195312 -43.84375 20.035156 -44.765625 24.359375 -44.765625 C 29.898438 -44.765625 34.523438 -43.3125 38.234375 -40.40625 C 41.953125 -37.507812 44.394531 -33.425781 45.5625 -28.15625 L 31.15625 -28.15625 C 29.945312 -31.53125 27.601562 -33.21875 24.125 -33.21875 C 21.644531 -33.21875 19.664062 -32.253906 18.1875 -30.328125 C 16.71875 -28.410156 15.984375 -25.65625 15.984375 -22.0625 C 15.984375 -18.476562 16.71875 -15.722656 18.1875 -13.796875 C 19.664062 -11.878906 21.644531 -10.921875 24.125 -10.921875 C 27.601562 -10.921875 29.945312 -12.609375 31.15625 -15.984375 L 45.5625 -15.984375 C 44.394531 -10.804688 41.941406 -6.742188 38.203125 -3.796875 C 34.460938 -0.847656 29.847656 0.625 24.359375 0.625 C 20.035156 0.625 16.195312 -0.296875 12.84375 -2.140625 C 9.5 -3.984375 6.890625 -6.617188 5.015625 -10.046875 C 3.148438 -13.472656 2.21875 -17.476562 2.21875 -22.0625 Z M 2.21875 -22.0625 "/></g></g></g><g fill="#9ed3c3" fill-opacity="1"><g transform="translate(930.963535, 472.417878)"><g><path d="M 25 0.625 C 20.675781 0.625 16.785156 -0.296875 13.328125 -2.140625 C 9.867188 -3.984375 7.148438 -6.617188 5.171875 -10.046875 C 3.203125 -13.472656 2.21875 -17.476562 2.21875 -22.0625 C 2.21875 -26.601562 3.21875 -30.597656 5.21875 -34.046875 C 7.21875 -37.503906 9.957031 -40.15625 13.4375 -42 C 16.925781 -43.84375 20.832031 -44.765625 25.15625 -44.765625 C 29.476562 -44.765625 33.378906 -43.84375 36.859375 -42 C 40.335938 -40.15625 43.078125 -37.503906 45.078125 -34.046875 C 47.085938 -30.597656 48.09375 -26.601562 48.09375 -22.0625 C 48.09375 -17.53125 47.078125 -13.535156 45.046875 -10.078125 C 43.015625 -6.628906 40.242188 -3.984375 36.734375 -2.140625 C 33.234375 -0.296875 29.320312 0.625 25 0.625 Z M 25 -11.078125 C 27.582031 -11.078125 29.78125 -12.023438 31.59375 -13.921875 C 33.414062 -15.816406 34.328125 -18.53125 34.328125 -22.0625 C 34.328125 -25.59375 33.441406 -28.304688 31.671875 -30.203125 C 29.910156 -32.109375 27.738281 -33.0625 25.15625 -33.0625 C 22.519531 -33.0625 20.332031 -32.125 18.59375 -30.25 C 16.851562 -28.382812 15.984375 -25.65625 15.984375 -22.0625 C 15.984375 -18.53125 16.835938 -15.816406 18.546875 -13.921875 C 20.265625 -12.023438 22.414062 -11.078125 25 -11.078125 Z M 25 -11.078125 "/></g></g></g><g fill="#9ed3c3" fill-opacity="1"><g transform="translate(980.810525, 471.696939)"><g><path d="M 61.4375 -44.765625 C 66.9375 -44.765625 71.3125 -43.097656 74.5625 -39.765625 C 77.820312 -36.429688 79.453125 -31.800781 79.453125 -25.875 L 79.453125 0 L 65.953125 0 L 65.953125 -24.046875 C 65.953125 -26.910156 65.195312 -29.117188 63.6875 -30.671875 C 62.1875 -32.234375 60.113281 -33.015625 57.46875 -33.015625 C 54.820312 -33.015625 52.742188 -32.234375 51.234375 -30.671875 C 49.722656 -29.117188 48.96875 -26.910156 48.96875 -24.046875 L 48.96875 0 L 35.484375 0 L 35.484375 -24.046875 C 35.484375 -26.910156 34.726562 -29.117188 33.21875 -30.671875 C 31.707031 -32.234375 29.628906 -33.015625 26.984375 -33.015625 C 24.335938 -33.015625 22.257812 -32.234375 20.75 -30.671875 C 19.25 -29.117188 18.5 -26.910156 18.5 -24.046875 L 18.5 0 L 4.921875 0 L 4.921875 -44.296875 L 18.5 -44.296875 L 18.5 -38.734375 C 19.875 -40.585938 21.671875 -42.054688 23.890625 -43.140625 C 26.109375 -44.222656 28.625 -44.765625 31.4375 -44.765625 C 34.769531 -44.765625 37.742188 -44.050781 40.359375 -42.625 C 42.984375 -41.195312 45.035156 -39.160156 46.515625 -36.515625 C 48.046875 -38.941406 50.132812 -40.921875 52.78125 -42.453125 C 55.425781 -43.992188 58.3125 -44.765625 61.4375 -44.765625 Z M 61.4375 -44.765625 "/></g></g></g><g fill="#9ed3c3" fill-opacity="1"><g transform="translate(851.66964, 475.322853)"><g><path d="M 17.1875 0.125 C 13.5625 0.300781 10.550781 -0.617188 8.15625 -2.640625 C 5.757812 -4.660156 4.484375 -7.238281 4.328125 -10.375 C 4.171875 -13.59375 5.179688 -16.34375 7.359375 -18.625 C 9.546875 -20.914062 12.453125 -22.148438 16.078125 -22.328125 C 19.617188 -22.503906 22.585938 -21.5625 24.984375 -19.5 C 27.390625 -17.445312 28.671875 -14.8125 28.828125 -11.59375 C 28.984375 -8.457031 27.96875 -5.765625 25.78125 -3.515625 C 23.59375 -1.265625 20.726562 -0.0507812 17.1875 0.125 Z M 17.1875 0.125 "/></g></g></g></svg>