<?xml version="1.0" encoding="UTF-8" standalone="no"?>
<!DOCTYPE svg PUBLIC "-//W3C//DTD SVG 1.1//EN" "http://www.w3.org/Graphics/SVG/1.1/DTD/svg11.dtd">
<svg width="100%" height="100%" viewBox="0 0 8000 4500" version="1.1" xmlns="http://www.w3.org/2000/svg" xmlns:xlink="http://www.w3.org/1999/xlink" xml:space="preserve" xmlns:serif="http://www.serif.com/" style="fill-rule:evenodd;clip-rule:evenodd;stroke-linejoin:round;stroke-miterlimit:2;">
    <g transform="matrix(4.16667,0,0,4.16667,0,0)">
        <g transform="matrix(2.01848,0,0,2.01848,1068.81,705.515)">
            <g>
                <g>
                    <path d="M128.375,-114.021C129.5,-109.979 130.422,-105.698 131.146,-101.187L33.333,-74.042C36.443,-65.458 41.125,-59.542 47.375,-56.292C53.625,-53.042 60.38,-52.422 67.646,-54.437C78.406,-57.422 84.635,-64.047 86.333,-74.312L132.313,-87.083C132.531,-77.151 130.594,-67.63 126.5,-58.521C122.417,-49.406 116.323,-41.458 108.229,-34.667C100.13,-27.885 90.354,-22.906 78.896,-19.729C65.073,-15.896 51.958,-15.427 39.542,-18.333C27.125,-21.234 16.359,-27.318 7.25,-36.583C-1.844,-45.844 -8.427,-57.802 -12.5,-72.458C-16.568,-87.109 -17.13,-100.74 -14.188,-113.354C-11.24,-125.964 -5.198,-136.714 3.938,-145.604C13.073,-154.49 24.635,-160.88 38.625,-164.771C52.276,-168.547 65.198,-169.047 77.396,-166.271C89.604,-163.505 100.172,-157.646 109.104,-148.687C118.031,-139.729 124.458,-128.172 128.375,-114.021ZM81.021,-113.125C78.964,-120.542 74.797,-125.734 68.521,-128.708C62.255,-131.677 55.333,-132.109 47.75,-130C40.5,-127.984 34.969,-124.187 31.167,-118.604C27.375,-113.021 25.964,-106.187 26.938,-98.104L81.021,-113.125Z" style="fill:rgb(158,211,195);fill-rule:nonzero;"/>
                </g>
            </g>
        </g>
        <g transform="matrix(2.01848,0,0,2.01848,47.6013,671.909)">
            <g>
                <g>
                    <path d="M72,-148.708C82.333,-148.708 91.396,-146.604 99.188,-142.396C106.979,-138.198 112.979,-132.687 117.188,-125.854L117.188,-146.604L162.125,-146.604L162.125,-0.271C162.125,13.229 159.448,25.448 154.104,36.396C148.755,47.339 140.609,56.047 129.667,62.521C118.719,69.005 105.104,72.25 88.813,72.25C67.089,72.25 49.484,67.125 36,56.875C22.51,46.635 14.802,32.755 12.875,15.229L57.271,15.229C58.672,20.839 62,25.26 67.25,28.5C72.51,31.75 79,33.375 86.708,33.375C95.984,33.375 103.38,30.698 108.896,25.354C114.422,20.005 117.188,11.464 117.188,-0.271L117.188,-21.021C112.813,-14.187 106.771,-8.625 99.063,-4.333C91.354,-0.042 82.333,2.104 72,2.104C59.901,2.104 48.948,-1.005 39.146,-7.229C29.339,-13.448 21.589,-22.297 15.896,-33.771C10.198,-45.24 7.354,-58.505 7.354,-73.562C7.354,-88.63 10.198,-101.859 15.896,-113.25C21.589,-124.635 29.339,-133.396 39.146,-139.521C48.948,-145.646 59.901,-148.708 72,-148.708ZM117.188,-73.312C117.188,-84.521 114.073,-93.359 107.854,-99.833C101.63,-106.318 94.052,-109.562 85.125,-109.562C76.193,-109.562 68.615,-106.365 62.396,-99.979C56.188,-93.589 53.083,-84.781 53.083,-73.562C53.083,-62.354 56.188,-53.464 62.396,-46.896C68.615,-40.323 76.193,-37.042 85.125,-37.042C94.052,-37.042 101.63,-40.281 107.854,-46.771C114.073,-53.255 117.188,-62.104 117.188,-73.312Z" style="fill:rgb(158,211,195);fill-rule:nonzero;"/>
                </g>
            </g>
        </g>
        <g transform="matrix(2.01848,0,0,2.01848,382.213,672.001)">
            <g>
                <g>
                    <path d="M82.875,2.104C68.542,2.104 55.646,-0.958 44.188,-7.083C32.74,-13.208 23.734,-21.948 17.167,-33.312C10.609,-44.672 7.333,-57.958 7.333,-73.167C7.333,-88.208 10.651,-101.448 17.292,-112.896C23.943,-124.354 33.042,-133.135 44.583,-139.25C56.125,-145.375 69.063,-148.437 83.396,-148.437C97.74,-148.437 110.677,-145.375 122.208,-139.25C133.75,-133.135 142.839,-124.354 149.479,-112.896C156.13,-101.448 159.458,-88.208 159.458,-73.167C159.458,-58.135 156.089,-44.896 149.354,-33.437C142.63,-21.99 133.448,-13.208 121.813,-7.083C110.188,-0.958 97.208,2.104 82.875,2.104ZM82.875,-36.708C91.443,-36.708 98.74,-39.854 104.771,-46.146C110.813,-52.448 113.833,-61.458 113.833,-73.167C113.833,-84.885 110.901,-93.896 105.042,-100.187C99.177,-106.479 91.964,-109.625 83.396,-109.625C74.656,-109.625 67.401,-106.521 61.625,-100.312C55.859,-94.104 52.979,-85.052 52.979,-73.167C52.979,-61.458 55.818,-52.448 61.5,-46.146C67.177,-39.854 74.302,-36.708 82.875,-36.708Z" style="fill:rgb(158,211,195);fill-rule:nonzero;"/>
                </g>
            </g>
        </g>
        <g transform="matrix(2.01848,0,0,2.01848,692.913,665.058)">
            <g>
                <g>
                    <path d="M105.438,-147.917C122.573,-147.917 136.255,-142.359 146.479,-131.25C156.698,-120.151 161.813,-104.901 161.813,-85.5L161.813,0L117.229,0L117.229,-79.458C117.229,-89.25 114.693,-96.854 109.625,-102.271C104.552,-107.698 97.734,-110.417 89.167,-110.417C80.594,-110.417 73.776,-107.698 68.708,-102.271C63.635,-96.854 61.104,-89.25 61.104,-79.458L61.104,0L16.271,0L16.271,-146.354L61.104,-146.354L61.104,-126.937C65.656,-133.406 71.776,-138.521 79.458,-142.271C87.151,-146.031 95.813,-147.917 105.438,-147.917Z" style="fill:rgb(158,211,195);fill-rule:nonzero;"/>
                </g>
            </g>
        </g>
        <g transform="matrix(2.01848,0,0,2.01848,1393.68,670.3)">
            <g>
                <g>
                    <path d="M2.958,-29.417C2.958,-35.542 4.198,-40.885 6.688,-45.458C9.188,-50.026 12.667,-53.542 17.125,-56C21.594,-58.458 26.714,-59.687 32.479,-59.687C39.865,-59.687 46.031,-57.75 50.979,-53.875C55.938,-50.01 59.193,-44.568 60.75,-37.542L41.542,-37.542C39.927,-42.042 36.802,-44.292 32.167,-44.292C28.859,-44.292 26.219,-43.005 24.25,-40.437C22.292,-37.88 21.313,-34.208 21.313,-29.417C21.313,-24.635 22.292,-20.964 24.25,-18.396C26.219,-15.839 28.859,-14.562 32.167,-14.562C36.802,-14.562 39.927,-16.812 41.542,-21.312L60.75,-21.312C59.193,-14.406 55.922,-8.99 50.938,-5.062C45.948,-1.13 39.797,0.833 32.479,0.833C26.714,0.833 21.594,-0.396 17.125,-2.854C12.667,-5.312 9.188,-8.823 6.688,-13.396C4.198,-17.964 2.958,-23.302 2.958,-29.417Z" style="fill:rgb(158,211,195);fill-rule:nonzero;"/>
                </g>
            </g>
        </g>
        <g transform="matrix(2.01848,0,0,2.01848,1521.63,668.438)">
            <g>
                <g>
                    <path d="M33.333,0.833C27.568,0.833 22.38,-0.396 17.771,-2.854C13.156,-5.312 9.531,-8.823 6.896,-13.396C4.271,-17.964 2.958,-23.302 2.958,-29.417C2.958,-35.469 4.292,-40.797 6.958,-45.396C9.625,-50.005 13.276,-53.542 17.917,-56C22.568,-58.458 27.776,-59.687 33.542,-59.687C39.302,-59.687 44.505,-58.458 49.146,-56C53.781,-53.542 57.438,-50.005 60.104,-45.396C62.781,-40.797 64.125,-35.469 64.125,-29.417C64.125,-23.375 62.771,-18.047 60.063,-13.437C57.354,-8.839 53.656,-5.312 48.979,-2.854C44.313,-0.396 39.094,0.833 33.333,0.833ZM33.333,-14.771C36.776,-14.771 39.708,-16.031 42.125,-18.562C44.552,-21.089 45.771,-24.708 45.771,-29.417C45.771,-34.125 44.589,-37.74 42.229,-40.271C39.88,-42.812 36.984,-44.083 33.542,-44.083C30.026,-44.083 27.109,-42.833 24.792,-40.333C22.469,-37.844 21.313,-34.208 21.313,-29.417C21.313,-24.708 22.448,-21.089 24.729,-18.562C27.021,-16.031 29.885,-14.771 33.333,-14.771Z" style="fill:rgb(158,211,195);fill-rule:nonzero;"/>
                </g>
            </g>
        </g>
        <g transform="matrix(2.01848,0,0,2.01848,1655.78,666.498)">
            <g>
                <g>
                    <path d="M81.917,-59.687C89.25,-59.687 95.083,-57.464 99.417,-53.021C103.76,-48.573 105.938,-42.401 105.938,-34.5L105.938,0L87.938,0L87.938,-32.062C87.938,-35.88 86.927,-38.823 84.917,-40.896C82.917,-42.979 80.151,-44.021 76.625,-44.021C73.094,-44.021 70.323,-42.979 68.313,-40.896C66.297,-38.823 65.292,-35.88 65.292,-32.062L65.292,0L47.313,0L47.313,-32.062C47.313,-35.88 46.302,-38.823 44.292,-40.896C42.276,-42.979 39.505,-44.021 35.979,-44.021C32.448,-44.021 29.677,-42.979 27.667,-40.896C25.667,-38.823 24.667,-35.88 24.667,-32.062L24.667,0L6.563,0L6.563,-59.062L24.667,-59.062L24.667,-51.646C26.5,-54.115 28.896,-56.073 31.854,-57.521C34.813,-58.964 38.167,-59.687 41.917,-59.687C46.359,-59.687 50.323,-58.734 53.813,-56.833C57.313,-54.927 60.047,-52.214 62.021,-48.687C64.063,-51.922 66.844,-54.562 70.375,-56.604C73.901,-58.656 77.75,-59.687 81.917,-59.687Z" style="fill:rgb(158,211,195);fill-rule:nonzero;"/>
                </g>
            </g>
        </g>
        <g transform="matrix(2.01848,0,0,2.01848,1308.22,676.256)">
            <g>
                <g>
                    <path d="M22.917,0.167C18.083,0.401 14.068,-0.823 10.875,-3.521C7.677,-6.214 5.979,-9.651 5.771,-13.833C5.563,-18.125 6.906,-21.792 9.813,-24.833C12.729,-27.885 16.604,-29.531 21.438,-29.771C26.156,-30.005 30.115,-28.75 33.313,-26C36.521,-23.26 38.229,-19.75 38.438,-15.458C38.646,-11.276 37.292,-7.687 34.375,-4.687C31.458,-1.687 27.635,-0.068 22.917,0.167Z" style="fill:rgb(158,211,195);fill-rule:nonzero;"/>
                </g>
            </g>
        </g>
    </g>
</svg>
